<svg id="Layer_1" data-name="Layer 1" xmlns="http://www.w3.org/2000/svg" viewBox="0 0 512 512"><defs><style>.cls-1{fill:#d8d8d8;}.cls-2{fill:#adadad;}</style></defs><title>user</title><rect class="cls-1" width="512" height="512"/><path class="cls-2" d="M253.05,262.72c30.94,0,57.72-11.09,79.61-33s33-48.66,33-79.6-11.09-57.71-33-79.61-48.68-33-79.61-33-57.72,11.09-79.61,33-33,48.67-33,79.6,11.1,57.72,33,79.61S222.12,262.72,253.05,262.72Z"/><path class="cls-2" d="M450.05,397a277.45,277.45,0,0,0-3.78-29.54,232.15,232.15,0,0,0-7.27-29.7,146.76,146.76,0,0,0-12.21-27.7,104.84,104.84,0,0,0-18.4-24,81.1,81.1,0,0,0-26.45-16.61,91.3,91.3,0,0,0-33.76-6.11c-4.77,0-9.39,2-18.3,7.76-5.48,3.58-11.9,7.71-19.06,12.29-6.12,3.9-14.42,7.56-24.67,10.87a95.86,95.86,0,0,1-60.33,0c-10.24-3.31-18.53-7-24.65-10.87-7.09-4.53-13.51-8.67-19.08-12.29-8.9-5.81-13.52-7.77-18.29-7.77A91.26,91.26,0,0,0,130,269.46a81.16,81.16,0,0,0-26.45,16.62,104.49,104.49,0,0,0-18.4,24A148.06,148.06,0,0,0,73,337.76a234.28,234.28,0,0,0-7.26,29.7A279.39,279.39,0,0,0,61.93,397c-.62,8.94-.93,18.22-.93,27.6,0,24.4,7.76,44.16,23,58.72C99.16,497.71,119.15,505,143.46,505H368.54c24.31,0,44.29-7.29,59.4-21.67C443.24,468.78,451,449,451,424.61,451,415.19,450.68,405.9,450.05,397Z"/></svg>